<?xml version="1.0" encoding="UTF-8"?><svg version="1.1" width="20px" height="20px" viewBox="0 0 20.0 20.0" xmlns="http://www.w3.org/2000/svg" xmlns:xlink="http://www.w3.org/1999/xlink"><defs><clipPath id="i0"><path d="M1440,0 L1440,2249 L0,2249 L0,0 L1440,0 Z"></path></clipPath><clipPath id="i1"><path d="M20,0 L20,19.9999743 L0,19.9999743 L0,0 L20,0 Z"></path></clipPath><clipPath id="i2"><path d="M9.99998714,0 C15.5228415,0 20,4.47713281 20,9.99998714 C20,15.5228415 15.5228415,19.9999743 9.99998714,19.9999743 C4.47716138,19.9999743 0,15.5228415 0,9.99998714 C0,4.47713281 4.47716138,0 9.99998714,0 Z"></path></clipPath><clipPath id="i3"><path d="M8.70012529,0 L9.984661,1.28453571 L3.84199926,7.42719745 L0,3.58760545 L1.28453571,2.30306974 L3.84079563,4.85932967 L8.70012529,0 Z"></path></clipPath></defs><g transform="translate(-182.0 -324.0)"><g clip-path="url(#i0)"><g transform="translate(121.0 200.0)"><g transform="translate(41.0 0.0)"><g transform="translate(0.0 105.0)"><g transform="translate(20.0 5.000000000000032)"><g transform="translate(0.0 14.0)"><g clip-path="url(#i1)"><g transform="translate(-2.857318785132179e-06 0.0)"><g clip-path="url(#i2)"><polygon points="2.85731949e-06,0 20,0 20,19.9999743 2.85731949e-06,19.9999743 2.85731949e-06,0" stroke="none" fill="#04A88B"></polygon></g></g></g><g transform="translate(4.976217535680215 6.949690473798882)"><g clip-path="url(#i3)"><polygon points="0,0 9.984661,0 9.984661,7.42719745 0,7.42719745 0,0" stroke="none" fill="#FFFFFF"></polygon></g></g></g></g></g></g></g></g></g></svg>