<?xml version="1.0" encoding="UTF-8"?><svg version="1.1" width="31px" height="30px" viewBox="0 0 31.0 30.0" xmlns="http://www.w3.org/2000/svg" xmlns:xlink="http://www.w3.org/1999/xlink"><defs><clipPath id="i0"><path d="M1440,0 L1440,1769 L0,1769 L0,0 L1440,0 Z"></path></clipPath><clipPath id="i1"><path d="M15.0385604,0 C23.344128,0 30.0771208,6.71572875 30.0771208,15 C30.0771208,23.2842712 23.344128,30 15.0385604,30 C6.73299284,30 0,23.2842712 0,15 C0,6.71572875 6.73299284,0 15.0385604,0 Z"></path></clipPath><clipPath id="i2"><path d=""></path></clipPath><clipPath id="i3"><path d="M11.6418092,0.18 L11.906686,0.475450825 L11.7562334,0.84810476 L11.6609355,1.02 L0,1.02 L0,0.18 L11.6418092,0.18 Z"></path></clipPath></defs><g transform="translate(-347.0 -759.0)"><g clip-path="url(#i0)"><g transform="translate(113.0 215.0)"><g transform="translate(234.0 262.0)"><g transform="translate(0.0 282.0)"><g transform="translate(30.07712082262204 0.0) scale(-1.0 1.0)"><g clip-path="url(#i1)"><path d="M15.0385604,30 C23.344128,30 30.0771208,23.2842712 30.0771208,15 C30.0771208,6.71572875 23.344128,0 15.0385604,0 C6.73299284,0 0,6.71572875 0,15 C0,23.2842712 6.73299284,30 15.0385604,30 Z" stroke="#898775" stroke-width="2.4" fill="none" stroke-miterlimit="5"></path></g><g transform="translate(8.912295422787793 11.7026762503094)"><g transform="translate(5.83635680892129 3.181980515339435) rotate(-44.99999999999999)"><g clip-path="url(#i2)"><polygon points="0,0 4.5,0 4.5,4.5 0,4.5 0,0" stroke="none" fill="#898775"></polygon></g><path d="M4.5,0 L4.47751891,4.47751891 L0,4.5" stroke="#898775" stroke-width="0.84" fill="none" stroke-miterlimit="10"></path></g><g transform="translate(0.0 2.884823749691634)"><g clip-path="url(#i3)"><polygon points="0,0.18 11.906686,0.18 11.906686,1.02 0,1.02 0,0.18" stroke="none" fill="#898775"></polygon></g></g></g></g></g></g></g></g></g></svg>